<svg width="130" height="48" viewBox="0 0 130 48" fill="none" xmlns="http://www.w3.org/2000/svg">
<style>
  .char { fill: #131313; }
  @media (prefers-color-scheme: dark) {
    .char { fill: #F6F6F6; }
  }
</style>
<path class="char" d="M84.2894 33.29H78.8145V5.17139H87.3607L92.4731 27.2809L97.5475 5.17139H105.998V33.29H100.523V14.2708C100.523 13.724 100.53 12.9609 100.542 11.9817C100.555 10.9897 100.562 10.2266 100.562 9.69249L95.2392 33.29H89.5354L84.2512 9.69249C84.2512 10.2266 84.2576 10.9897 84.2703 11.9817C84.283 12.9609 84.2894 13.724 84.2894 14.2708V33.29Z" fill="black"/>
<path class="char" d="M71.001 13.4505C72.6288 14.4933 73.5636 16.2865 73.8052 18.83H68.3684C68.2921 18.1305 68.095 17.5773 67.7771 17.1704C67.1793 16.4327 66.1619 16.0639 64.7248 16.0639C63.5421 16.0639 62.6964 16.2483 62.1877 16.6171C61.6917 16.9859 61.4437 17.4183 61.4437 17.9143C61.4437 18.5375 61.7108 18.989 62.2449 19.2688C62.779 19.5613 64.6676 20.0636 67.9106 20.7758C70.0726 21.2845 71.6941 22.0539 72.7751 23.084C73.8433 24.1269 74.3775 25.4304 74.3775 26.9947C74.3775 29.0549 73.6081 30.74 72.0692 32.0499C70.5431 33.3471 68.1777 33.9957 64.9728 33.9957C61.7044 33.9957 59.2881 33.309 57.7238 31.9355C56.1723 30.5493 55.3965 28.7879 55.3965 26.6513H60.9096C61.024 27.6178 61.272 28.3046 61.6535 28.7116C62.3276 29.4365 63.5739 29.7989 65.3925 29.7989C66.4608 29.7989 67.3065 29.6399 67.9297 29.322C68.5655 29.0041 68.8835 28.5272 68.8835 27.8913C68.8835 27.2808 68.6291 26.8166 68.1204 26.4987C67.6117 26.1808 65.7232 25.6339 62.4547 24.8581C60.102 24.2731 58.4423 23.5419 57.4758 22.6644C56.5093 21.7996 56.026 20.5532 56.026 18.9254C56.026 17.005 56.7763 15.3581 58.277 13.9846C59.7904 12.5984 61.9142 11.9053 64.6485 11.9053C67.2429 11.9053 69.3604 12.4203 71.001 13.4505Z" fill="black"/>
<path class="char" d="M51.39 12.497V33.2903H45.877V12.497H51.39ZM51.39 5V10.0171H45.877V5H51.39Z" fill="black"/>
<path class="char" d="M22.3574 5.17139H28.2329V28.2347H42.1587V33.29H22.3574V5.17139Z" fill="black"/>
<path d="M86.7285 40.764V39.9715H102.725V37.9004H109V39.9715H124.997V40.764H109V42.8304H102.725V40.764H86.7285Z" fill="#9A0000"/>
<path d="M81.1137 38.9526V39.7452H42.8457V38.9526H81.1137ZM81.1137 40.9765V41.7832H42.8457V40.9765H81.1137Z" fill="#9A0000"/>
<path d="M5.99805 39.6958H37.405V40.5911H5.99805V39.6958Z" fill="#9A0000"/>
</svg>
